<?plantuml 1.2026.2?><svg xmlns="http://www.w3.org/2000/svg" xmlns:xlink="http://www.w3.org/1999/xlink" contentStyleType="text/css" data-diagram-type="DESCRIPTION" height="752px" preserveAspectRatio="none" style="width:325px;height:752px;background:#FFFFFF;" version="1.1" viewBox="0 0 325 752" width="325px" zoomAndPan="magnify"><title>Instructor Use Case View</title><defs/><g><g class="title" data-source-line="11"><text fill="#000000" font-family="Arial" font-size="22" font-weight="bold" lengthAdjust="spacing" textLength="264.0889" x="26.1605" y="35.4381">Instructor Use Case View</text></g><!--cluster AI Extension System--><g class="cluster" data-qualified-name="AI Extension System" data-source-line="17" id="ent0003"><rect fill="#FFFFFF" height="687" rx="2.5" ry="2.5" style="stroke:#888888;stroke-width:1;" width="227" x="92.41" y="59.4001"/><text fill="#000000" font-family="Arial" font-size="11" font-weight="bold" lengthAdjust="spacing" textLength="108.8112" x="151.5044" y="71.619">AI Extension System</text></g><!--cluster Access and Canvas Integration--><g class="cluster" data-qualified-name="AI Extension System.Access and Canvas Integration" data-source-line="19" id="ent0004"><path d="M118.91,575.4001 L283.1268,575.4001 A3.75,3.75 0 0 1 285.6268,577.9001 L292.6268,594.6 L292.91,594.6 A2.5,2.5 0 0 1 295.41,597.1 L295.41,719.9001 A2.5,2.5 0 0 1 292.91,722.4001 L118.91,722.4001 A2.5,2.5 0 0 1 116.41,719.9001 L116.41,577.9001 A2.5,2.5 0 0 1 118.91,575.4001" fill="#DDEBF7" style="stroke:#888888;stroke-width:1;"/><line style="stroke:#888888;stroke-width:1;" x1="116.41" x2="292.6268" y1="594.6" y2="594.6"/><text fill="#000000" font-family="Arial" font-size="11" font-weight="bold" lengthAdjust="spacing" textLength="163.2168" x="120.41" y="587.619">Access and Canvas Integration</text></g><!--cluster AI-assisted Authoring--><g class="cluster" data-qualified-name="AI Extension System.AI-assisted Authoring" data-source-line="24" id="ent0007"><path d="M139.43,99.4001 L254.7192,99.4001 A3.75,3.75 0 0 1 257.2192,101.9001 L264.2192,118.6 L271.38,118.6 A2.5,2.5 0 0 1 273.88,121.1 L273.88,548.9001 A2.5,2.5 0 0 1 271.38,551.4001 L139.43,551.4001 A2.5,2.5 0 0 1 136.93,548.9001 L136.93,101.9001 A2.5,2.5 0 0 1 139.43,99.4001" fill="#FEF9E7" style="stroke:#888888;stroke-width:1;"/><line style="stroke:#888888;stroke-width:1;" x1="136.93" x2="264.2192" y1="118.6" y2="118.6"/><text fill="#000000" font-family="Arial" font-size="11" font-weight="bold" lengthAdjust="spacing" textLength="114.2892" x="140.93" y="111.619">AI-assisted Authoring</text></g><!--entity UC_Launch--><g class="entity" data-qualified-name="AI Extension System.Access and Canvas Integration.UC_Launch" data-source-line="20" id="ent0005"><ellipse cx="205.4054" cy="685.4023" fill="#EBF5FB" rx="43.5354" ry="21.4322" style="stroke:#555555;stroke-width:1;"/><text fill="#000000" font-family="Arial" font-size="11" lengthAdjust="spacing" textLength="58.0576" x="176.3766" y="682.2372">UC-LMS-01</text><text fill="#000000" font-family="Arial" font-size="11" lengthAdjust="spacing" textLength="55.0326" x="177.8891" y="695.4371">LTI Launch</text></g><!--entity UC_DeepLink--><g class="entity" data-qualified-name="AI Extension System.Access and Canvas Integration.UC_DeepLink" data-source-line="21" id="ent0006"><ellipse cx="205.4119" cy="628.3976" fill="#EBF5FB" rx="47.3719" ry="21.2475" style="stroke:#555555;stroke-width:1;"/><text fill="#000000" font-family="Arial" font-size="11" lengthAdjust="spacing" textLength="58.0576" x="176.3832" y="624.2968">UC-LMS-02</text><text fill="#000000" font-family="Arial" font-size="11" lengthAdjust="spacing" textLength="64.1955" x="173.3142" y="637.4967">Deep Linking</text></g><!--entity UC_Upload--><g class="entity" data-qualified-name="AI Extension System.AI-assisted Authoring.UC_Upload" data-source-line="25" id="ent0008"><ellipse cx="205.414" cy="231.4048" fill="#EBF5FB" rx="50.374" ry="26.2447" style="stroke:#555555;stroke-width:1;"/><text fill="#000000" font-family="Arial" font-size="11" lengthAdjust="spacing" textLength="46.4417" x="182.1932" y="220.8439">UC-IN-01</text><text fill="#000000" font-family="Arial" font-size="11" lengthAdjust="spacing" textLength="80.7064" x="165.0608" y="234.0438">Upload Learning</text><text fill="#000000" font-family="Arial" font-size="11" lengthAdjust="spacing" textLength="52.5686" x="179.1297" y="247.2437">Resources</text></g><!--entity UC_Watch--><g class="entity" data-qualified-name="AI Extension System.AI-assisted Authoring.UC_Watch" data-source-line="26" id="ent0009"><ellipse cx="205.4087" cy="161.3983" fill="#EBF5FB" rx="40.1887" ry="30.0682" style="stroke:#555555;stroke-width:1;"/><text fill="#000000" font-family="Arial" font-size="11" lengthAdjust="spacing" textLength="46.4417" x="182.1878" y="149.9552">UC-IN-02</text><text fill="#000000" font-family="Arial" font-size="11" lengthAdjust="spacing" textLength="36.6737" x="187.0718" y="163.1551">Monitor</text><text fill="#000000" font-family="Arial" font-size="11" lengthAdjust="spacing" textLength="54.4056" x="178.2059" y="176.355">Processing</text></g><!--entity UC_Review--><g class="entity" data-qualified-name="AI Extension System.AI-assisted Authoring.UC_Review" data-source-line="27" id="ent0010"><ellipse cx="205.4075" cy="505.4049" fill="#EBF5FB" rx="38.8375" ry="30.3048" style="stroke:#555555;stroke-width:1;"/><text fill="#000000" font-family="Arial" font-size="11" lengthAdjust="spacing" textLength="46.4417" x="182.1867" y="494.3071">UC-IN-03</text><text fill="#000000" font-family="Arial" font-size="11" lengthAdjust="spacing" textLength="36.0577" x="187.3787" y="507.507">Review</text><text fill="#000000" font-family="Arial" font-size="11" lengthAdjust="spacing" textLength="51.9746" x="179.4202" y="520.7069">AI Content</text></g><!--entity UC_Publish--><g class="entity" data-qualified-name="AI Extension System.AI-assisted Authoring.UC_Publish" data-source-line="28" id="ent0011"><ellipse cx="205.4148" cy="435.4001" fill="#EBF5FB" rx="50.8948" ry="26.15" style="stroke:#555555;stroke-width:1;"/><text fill="#000000" font-family="Arial" font-size="11" lengthAdjust="spacing" textLength="46.4417" x="182.194" y="424.8528">UC-IN-04</text><text fill="#000000" font-family="Arial" font-size="11" lengthAdjust="spacing" textLength="81.9274" x="164.4512" y="438.0527">Publish Learning</text><text fill="#000000" font-family="Arial" font-size="11" lengthAdjust="spacing" textLength="52.5686" x="179.1306" y="451.2526">Resources</text></g><!--entity UC_Analytics--><g class="entity" data-qualified-name="AI Extension System.AI-assisted Authoring.UC_Analytics" data-source-line="29" id="ent0012"><ellipse cx="205.4089" cy="366.3962" fill="#EBF5FB" rx="38.3789" ry="28.7562" style="stroke:#555555;stroke-width:1;"/><text fill="#000000" font-family="Arial" font-size="11" lengthAdjust="spacing" textLength="46.4417" x="182.1881" y="356.6642">UC-IN-05</text><text fill="#000000" font-family="Arial" font-size="11" lengthAdjust="spacing" textLength="54.3946" x="178.2116" y="369.8641">View Class</text><text fill="#000000" font-family="Arial" font-size="11" lengthAdjust="spacing" textLength="44.0107" x="183.4036" y="383.064">Analytics</text></g><!--entity UC_Manage--><g class="entity" data-qualified-name="AI Extension System.AI-assisted Authoring.UC_Manage" data-source-line="30" id="ent0013"><ellipse cx="205.4144" cy="297.3973" fill="#EBF5FB" rx="52.4744" ry="25.8872" style="stroke:#555555;stroke-width:1;"/><text fill="#000000" font-family="Arial" font-size="11" lengthAdjust="spacing" textLength="46.4417" x="182.1936" y="286.8875">UC-IN-06</text><text fill="#000000" font-family="Arial" font-size="11" lengthAdjust="spacing" textLength="85.6013" x="162.6137" y="300.0874">Manage Learning</text><text fill="#000000" font-family="Arial" font-size="11" lengthAdjust="spacing" textLength="52.5686" x="179.1301" y="313.2873">Resources</text></g><!--entity Instructor--><g class="entity" data-qualified-name="Instructor" data-source-line="15" id="ent0002"><ellipse cx="43.7038" cy="350.7001" fill="#FFFFFF" rx="8" ry="8" style="stroke:#555555;stroke-width:1;"/><path d="M43.7038,358.7001 L43.7038,385.7001 M30.7038,366.7001 L56.7038,366.7001 M43.7038,385.7001 L30.7038,400.7001 M43.7038,385.7001 L56.7038,400.7001" fill="none" style="stroke:#555555;stroke-width:1;"/><text fill="#000000" font-family="Arial" font-size="11" lengthAdjust="spacing" textLength="45.8477" x="20.78" y="412.919">Instructor</text><text fill="#000000" font-family="Arial" font-size="11" lengthAdjust="spacing" textLength="38.4997" x="20.78" y="426.1189">(AC-01)</text></g><!--entity Canvas--><g class="entity" data-qualified-name="Canvas" data-source-line="34" id="ent0014"><ellipse cx="43.7018" cy="621.7001" fill="#FFFFFF" rx="8" ry="8" style="stroke:#555555;stroke-width:1;"/><path d="M43.7018,629.7001 L43.7018,656.7001 M30.7018,637.7001 L56.7018,637.7001 M43.7018,656.7001 L30.7018,671.7001 M43.7018,656.7001 L56.7018,671.7001" fill="none" style="stroke:#555555;stroke-width:1;"/><text fill="#000000" font-family="Arial" font-size="11" lengthAdjust="spacing" textLength="62.9635" x="12.22" y="683.919">Canvas LMS</text><text fill="#000000" font-family="Arial" font-size="11" lengthAdjust="spacing" textLength="38.4997" x="12.22" y="697.1189">(AC-03)</text></g><!--entity LLM--><g class="entity" data-qualified-name="LLM" data-source-line="35" id="ent0015"><ellipse cx="43.7028" cy="470.7001" fill="#FFFFFF" rx="8" ry="8" style="stroke:#555555;stroke-width:1;"/><path d="M43.7028,478.7001 L43.7028,505.7001 M30.7028,486.7001 L56.7028,486.7001 M43.7028,505.7001 L30.7028,520.7001 M43.7028,505.7001 L56.7028,520.7001" fill="none" style="stroke:#555555;stroke-width:1;"/><text fill="#000000" font-family="Arial" font-size="11" lengthAdjust="spacing" textLength="65.4055" x="11" y="532.919">LLM Provider</text><text fill="#000000" font-family="Arial" font-size="11" lengthAdjust="spacing" textLength="38.4997" x="11" y="546.1189">(AC-04)</text></g><!--link Instructor to UC_Launch--><g class="link" data-entity-1="ent0002" data-entity-2="ent0005" data-link-type="dependency" data-source-line="37" id="lnk16"><path d="M67.03,427.1601 C70.82,435.9401 74.22,445.3001 76.41,454.4001 C81.64,476.2401 70.17,639.0301 84.41,656.4001 C102.75,678.7801 129.1292,685.2878 155.6292,686.7578" fill="none" id="Instructor-to-UC_Launch" style="stroke:#000000;stroke-width:1;"/><polygon fill="#000000" points="161.62,687.0901,152.8554,682.5978,156.6277,686.8132,152.4123,690.5855,161.62,687.0901" style="stroke:#000000;stroke-width:1;"/></g><!--link Instructor to UC_DeepLink--><g class="link" data-entity-1="ent0002" data-entity-2="ent0006" data-link-type="dependency" data-source-line="38" id="lnk17"><path d="M67.01,427.9901 C70.7,436.5401 74.08,445.6101 76.41,454.4001 C81.66,474.2401 74.05,528.6801 84.41,546.4001 C103.38,578.8601 135.4833,598.7719 163.5433,611.8719" fill="none" id="Instructor-to-UC_DeepLink" style="stroke:#000000;stroke-width:1;"/><polygon fill="#000000" points="168.98,614.4101,162.5171,606.9784,164.4494,612.295,159.1328,614.2273,168.98,614.4101" style="stroke:#000000;stroke-width:1;"/></g><!--link Instructor to UC_Upload--><g class="link" data-entity-1="ent0002" data-entity-2="ent0008" data-link-type="dependency" data-source-line="39" id="lnk18"><path d="M48.86,341.3101 C53.53,315.5901 63.43,284.3801 84.41,264.4001 C103.26,246.4401 125.0244,239.0221 149.0544,235.2021" fill="none" id="Instructor-to-UC_Upload" style="stroke:#000000;stroke-width:1;"/><polygon fill="#000000" points="154.98,234.2601,145.4636,231.7227,150.042,235.0451,146.7196,239.6235,154.98,234.2601" style="stroke:#000000;stroke-width:1;"/></g><!--link Instructor to UC_Watch--><g class="link" data-entity-1="ent0002" data-entity-2="ent0009" data-link-type="dependency" data-source-line="40" id="lnk19"><path d="M48.88,341.6001 C54.38,293.0801 65.6,218.9801 84.41,198.4001 C104.85,176.0301 132.5233,167.8479 158.9833,164.2979" fill="none" id="Instructor-to-UC_Watch" style="stroke:#000000;stroke-width:1;"/><polygon fill="#000000" points="164.93,163.5001,155.478,160.7324,159.9744,164.165,156.5418,168.6613,164.93,163.5001" style="stroke:#000000;stroke-width:1;"/></g><!--link Instructor to UC_Review--><g class="link" data-entity-1="ent0002" data-entity-2="ent0010" data-link-type="dependency" data-source-line="41" id="lnk20"><path d="M64.88,429.4601 C73.75,448.5001 82.59,466.8301 84.41,468.4001 C107.35,488.2001 134.8413,496.4159 160.5813,500.6959" fill="none" id="Instructor-to-UC_Review" style="stroke:#000000;stroke-width:1;"/><polygon fill="#000000" points="166.5,501.6801,158.278,496.258,161.5677,500.86,156.9658,504.1497,166.5,501.6801" style="stroke:#000000;stroke-width:1;"/></g><!--link Instructor to UC_Publish--><g class="link" data-entity-1="ent0002" data-entity-2="ent0011" data-link-type="dependency" data-source-line="42" id="lnk21"><path d="M66.75,395.4701 C72.44,397.9001 78.6,400.3701 84.41,402.4001 C108.57,410.8501 130.2707,417.0495 152.8407,422.8795" fill="none" id="Instructor-to-UC_Publish" style="stroke:#000000;stroke-width:1;"/><polygon fill="#000000" points="158.65,424.3801,150.9364,418.2563,153.8089,423.1296,148.9356,426.0021,158.65,424.3801" style="stroke:#000000;stroke-width:1;"/></g><!--link Instructor to UC_Analytics--><g class="link" data-entity-1="ent0002" data-entity-2="ent0012" data-link-type="dependency" data-source-line="43" id="lnk22"><path d="M66.91,382.7601 C92.79,379.6801 130.0221,375.2496 161.0921,371.5496" fill="none" id="Instructor-to-UC_Analytics" style="stroke:#000000;stroke-width:1;"/><polygon fill="#000000" points="167.05,370.8401,157.6401,367.9324,162.0851,371.4313,158.5861,375.8763,167.05,370.8401" style="stroke:#000000;stroke-width:1;"/></g><!--link Instructor to UC_Manage--><g class="link" data-entity-1="ent0002" data-entity-2="ent0013" data-link-type="dependency" data-source-line="44" id="lnk23"><path d="M67.07,347.0901 C72.12,340.8101 77.92,334.9001 84.41,330.4001 C104.82,316.2301 125.2198,309.3232 147.9898,304.7032" fill="none" id="Instructor-to-UC_Manage" style="stroke:#000000;stroke-width:1;"/><polygon fill="#000000" points="153.87,303.5101,144.2543,301.3796,148.9698,304.5043,145.8451,309.2198,153.87,303.5101" style="stroke:#000000;stroke-width:1;"/></g><!--link Canvas to UC_Launch--><g class="link" data-entity-1="ent0014" data-entity-2="ent0005" data-link-type="dependency" data-source-line="46" id="lnk24"><path d="M75.5,661.9901 C100.69,666.5701 130.6264,672.0089 158.1264,676.9989" fill="none" id="Canvas-to-UC_Launch" style="stroke:#000000;stroke-width:1;"/><polygon fill="#000000" points="164.03,678.0701,155.8888,672.5275,159.1103,677.1774,154.4604,680.399,164.03,678.0701" style="stroke:#000000;stroke-width:1;"/></g><!--link Canvas to UC_DeepLink--><g class="link" data-entity-1="ent0014" data-entity-2="ent0006" data-link-type="dependency" data-source-line="47" id="lnk25"><path d="M75.5,651.0001 C99.7,646.7601 127.7999,641.8247 154.8199,637.0947" fill="none" id="Canvas-to-UC_DeepLink" style="stroke:#000000;stroke-width:1;"/><polygon fill="#000000" points="160.73,636.0601,151.1751,633.6719,155.8049,636.9223,152.5545,641.5521,160.73,636.0601" style="stroke:#000000;stroke-width:1;"/></g><!--reverse link LLM to UC_Review--><g class="link" data-entity-1="ent0015" data-entity-2="ent0010" data-link-type="dependency" data-source-line="48" id="lnk26"><path d="M82.64,505.4001 C108.49,505.4001 138.97,505.4001 166.34,505.4001" fill="none" id="LLM-backto-UC_Review" style="stroke:#000000;stroke-width:1;"/><polygon fill="#000000" points="76.64,505.4001,85.64,509.4001,81.64,505.4001,85.64,501.4001,76.64,505.4001" style="stroke:#000000;stroke-width:1;"/></g><?plantuml-src VLDDZzf03BtFht33fJr4AbteXrHLWW0IKbYjIcalaIetcGqZWWVDJ6Ytg_tlzII13Ss6kSL-ptv-TbwvhTnBE1IeIDYTeWCQt4Ccxx4it4AJkqNEJup2ukNyMlsLC1osaXihKxHoYkakDxgaBDA5DZ2OJnVZnVG5e3QPD0reNBqMQ98wRQv3xhWJvfTrFbQl1J98EoiFC6m7IMUo2ew4SCeL4fPadIbzJoyF8jO7tvNyBKGXxnqu3KRbMmUPCZ9rIfCGMA63PsP2hoTH-7Ru9W2qhOf2U0vIpds2oHBcVvmaopLW_M2Tt0VmA0JmEzG3CIXDfRM0bB4IEbRLdCmD-iu136OpDlK3qw1vPMqf19ieZ5Th5f5G_6q9CPQKRYizc-Xd_TLFUfVGJB8jiIAsAZ_HVCo7AkBJ_rAN8LghU8uC9gNRQbCn1ulvujEyJ-BojbAuEHGQCuWb6c9MGb-brQNXsK-jQqHl3HQyqgGgx--CzgQrTFz0rpEjvzxuTaTUSKAyauXFMf8xKUjCBtV4xSfVXRBRQ-8RI6-LSKB-n20gs45MGLWyE9MU-UT0RuNtF3-ItyCL6JMYMTxJ-MwRm-B5DtTxKzzj7J-XudW5xEnHyI_Mu4OrZZD2j7wRCFpIkh5kudn5tLIpvMwYtc0ttgodcpXPtiqyczdDDGw9nfBBIIw3vocyCP_3iANc7m00?></g></svg>