<?plantuml 1.2026.2?><svg xmlns="http://www.w3.org/2000/svg" xmlns:xlink="http://www.w3.org/1999/xlink" contentStyleType="text/css" data-diagram-type="DESCRIPTION" height="327px" preserveAspectRatio="none" style="width:334px;height:327px;background:#FFFFFF;" version="1.1" viewBox="0 0 334 327" width="334px" zoomAndPan="magnify"><title>LLM Provider Use Case View</title><defs/><g><g class="title" data-source-line="11"><text fill="#000000" font-family="Arial" font-size="22" font-weight="bold" lengthAdjust="spacing" textLength="301.9951" x="15" y="35.4381">LLM Provider Use Case View</text></g><!--cluster AI Extension System--><g class="cluster" data-qualified-name="AI Extension System" data-source-line="17" id="ent0003"><rect fill="#FFFFFF" height="208" rx="2.5" ry="2.5" style="stroke:#888888;stroke-width:1;" width="203.51" x="111.9475" y="69.5001"/><text fill="#000000" font-family="Arial" font-size="11" font-weight="bold" lengthAdjust="spacing" textLength="108.8112" x="159.2969" y="81.719">AI Extension System</text></g><!--cluster LLM-backed Use Cases--><g class="cluster" data-qualified-name="AI Extension System.LLM-backed Use Cases" data-source-line="19" id="ent0004"><path d="M138.4475,109.5001 L262.3166,109.5001 A3.75,3.75 0 0 1 264.8166,112.0001 L271.8166,128.7 L288.9575,128.7 A2.5,2.5 0 0 1 291.4575,131.2 L291.4575,251.0001 A2.5,2.5 0 0 1 288.9575,253.5001 L138.4475,253.5001 A2.5,2.5 0 0 1 135.9475,251.0001 L135.9475,112.0001 A2.5,2.5 0 0 1 138.4475,109.5001" fill="#EBDEF0" style="stroke:#888888;stroke-width:1;"/><line style="stroke:#888888;stroke-width:1;" x1="135.9475" x2="271.8166" y1="128.7" y2="128.7"/><text fill="#000000" font-family="Arial" font-size="11" font-weight="bold" lengthAdjust="spacing" textLength="122.8691" x="139.9475" y="121.719">LLM-backed Use Cases</text></g><!--entity UC_Review--><g class="entity" data-qualified-name="AI Extension System.LLM-backed Use Cases.UC_Review" data-source-line="20" id="ent0005"><ellipse cx="213.6926" cy="161.4985" fill="#EBF5FB" rx="61.755" ry="20.0284" style="stroke:#555555;stroke-width:1;"/><text fill="#000000" font-family="Arial" font-size="11" lengthAdjust="spacing" textLength="46.4417" x="190.4717" y="155.5563">UC-IN-03</text><text fill="#000000" font-family="Arial" font-size="11" lengthAdjust="spacing" textLength="91.0903" x="168.1474" y="168.7562">Review AI Content</text></g><!--entity UC_Chat--><g class="entity" data-qualified-name="AI Extension System.LLM-backed Use Cases.UC_Chat" data-source-line="21" id="ent0006"><ellipse cx="213.697" cy="216.4955" fill="#EBF5FB" rx="43.9794" ry="20.8754" style="stroke:#555555;stroke-width:1;"/><text fill="#000000" font-family="Arial" font-size="11" lengthAdjust="spacing" textLength="48.8946" x="189.2496" y="211.8494">UC-LE-04</text><text fill="#000000" font-family="Arial" font-size="11" lengthAdjust="spacing" textLength="60.5216" x="183.4362" y="225.0493">Ask AI Tutor</text></g><!--entity LLM--><g class="entity" data-qualified-name="LLM" data-source-line="15" id="ent0002"><ellipse cx="63.2403" cy="154.8001" fill="#FFFFFF" rx="8" ry="8" style="stroke:#555555;stroke-width:1;"/><path d="M63.2403,162.8001 L63.2403,189.8001 M50.2403,170.8001 L76.2403,170.8001 M63.2403,189.8001 L50.2403,204.8001 M63.2403,189.8001 L76.2403,204.8001" fill="none" style="stroke:#555555;stroke-width:1;"/><text fill="#000000" font-family="Arial" font-size="11" lengthAdjust="spacing" textLength="65.4055" x="30.5375" y="217.019">LLM Provider</text><text fill="#000000" font-family="Arial" font-size="11" lengthAdjust="spacing" textLength="38.4997" x="30.5375" y="230.2189">(AC-04)</text></g><!--entity Instructor--><g class="entity" data-qualified-name="Instructor" data-source-line="25" id="ent0007"><ellipse cx="63.2414" cy="66.4001" fill="#FFFFFF" rx="8" ry="8" style="stroke:#555555;stroke-width:1;"/><path d="M63.2414,74.4001 L63.2414,101.4001 M50.2414,82.4001 L76.2414,82.4001 M63.2414,101.4001 L50.2414,116.4001 M63.2414,101.4001 L76.2414,116.4001" fill="none" style="stroke:#555555;stroke-width:1;"/><text fill="#000000" font-family="Arial" font-size="11" lengthAdjust="spacing" textLength="45.8477" x="40.3175" y="128.619">Instructor</text></g><!--entity Learner--><g class="entity" data-qualified-name="Learner" data-source-line="26" id="ent0008"><ellipse cx="63.2404" cy="256.4001" fill="#FFFFFF" rx="8" ry="8" style="stroke:#555555;stroke-width:1;"/><path d="M63.2404,264.4001 L63.2404,291.4001 M50.2404,272.4001 L76.2404,272.4001 M63.2404,291.4001 L50.2404,306.4001 M63.2404,291.4001 L76.2404,306.4001" fill="none" style="stroke:#555555;stroke-width:1;"/><text fill="#000000" font-family="Arial" font-size="11" lengthAdjust="spacing" textLength="37.9057" x="44.2875" y="318.619">Learner</text></g><!--reverse link LLM to UC_Review--><g class="link" data-entity-1="ent0002" data-entity-2="ent0005" data-link-type="dependency" data-source-line="28" id="lnk9"><path d="M101.984,182.3803 C120.474,178.9003 138.3375,175.5201 159.5875,171.5201" fill="none" id="LLM-backto-UC_Review" style="stroke:#000000;stroke-width:1;"/><polygon fill="#000000" points="96.0875,183.4901,105.6721,185.7564,101.0013,182.5653,104.1924,177.8944,96.0875,183.4901" style="stroke:#000000;stroke-width:1;"/></g><!--reverse link LLM to UC_Chat--><g class="link" data-entity-1="ent0002" data-entity-2="ent0006" data-link-type="dependency" data-source-line="29" id="lnk10"><path d="M101.9905,196.365 C124.2305,200.415 148.1975,204.7701 172.1375,209.1201" fill="none" id="LLM-backto-UC_Chat" style="stroke:#000000;stroke-width:1;"/><polygon fill="#000000" points="96.0875,195.2901,104.2253,200.8378,101.0066,196.1859,105.6586,192.9672,96.0875,195.2901" style="stroke:#000000;stroke-width:1;"/></g><!--link Instructor to UC_Review--><g class="link" data-entity-1="ent0007" data-entity-2="ent0005" data-link-type="dependency" data-source-line="31" id="lnk11"><path d="M86.4675,104.5301 C110.2475,115.2601 142.869,129.9812 170.999,142.6812" fill="none" id="Instructor-to-UC_Review" style="stroke:#000000;stroke-width:1;"/><polygon fill="#000000" points="176.4675,145.1501,169.9107,137.8011,171.9105,143.0927,166.6189,145.0924,176.4675,145.1501" style="stroke:#000000;stroke-width:1;"/></g><!--link Learner to UC_Chat--><g class="link" data-entity-1="ent0008" data-entity-2="ent0006" data-link-type="dependency" data-source-line="32" id="lnk12"><path d="M82.4475,276.1601 C106.9875,264.9201 145.6125,247.2286 175.6325,233.4786" fill="none" id="Learner-to-UC_Chat" style="stroke:#000000;stroke-width:1;"/><polygon fill="#000000" points="181.0875,230.9801,171.2393,231.0912,176.5417,233.0622,174.5707,238.3646,181.0875,230.9801" style="stroke:#000000;stroke-width:1;"/></g><?plantuml-src VL5BQyCm3BxhLsZPPJiOMjR23cEGPWaKkbBMTQV2y18rDKdjOZlTY_ttEKuV7fJf5Ejxw9DoOTUq8TpMN4WmbP1Rhla62rhnfhQPadRA7HvhmUlp-5ny4VRx0RWmb7D38vvNfLQDB19LAusNwIWRPgCpHAKBqdlIq5T0YdEhzF-KcPl4oxy-jxu2akQoChJ5VjYKgY3V701OOMl2oUGHPrhjXBDg0sBY4kABe7U0cbOMhK8johN5GcZAhL0IWBSPCGgrItaL9wmtk8wGczOLeALpMReXKJp6zCEID4wEyqzZQHFXDm2wsdRRU3lsvXvK78EOg3tZGvhr71ltrNHdn6YHiF6KzMwMyebsBZ6wCOdxHIIjJx58NZlWh7IIkhXB6PkgrJqtRgM3AbbpwpK_y7FSTYoDrKr-e9sUntCGrv8wTFyDqDxeZh4WIz3nS-3aX8pTXypEvD3rx5y0?></g></svg>